#define bat_charge_01_width  8
#define bat_charge_01_height 8
static unsigned char bat_charge_01_bits[] = {
 0x18, 0x7e, 0x42, 0x52, 0x5a, 0x4a, 0x42, 0x7e };

