#define gentoo_width  8
#define gentoo_height 8
static unsigned char gentoo_bits[] = {
 0x1e, 0x3f, 0x77, 0xfe, 0x7c, 0x3e, 0x1f, 0x0e };
