#define image_width  9
#define image_height 8
static unsigned char image_bits[] = {
 0x82, 0xfe, 0xff, 0xff, 0x01, 0xff, 0x55, 0xff, 0x01, 0xff, 0x55, 0xff, 
 0x01, 0xff, 0xff, 0xff };
