#define image_width  11
#define image_height 8
static unsigned char image_bits[] = {
 0xff, 0xff, 0xff, 0xff, 0x56, 0xff, 0x57, 0xff, 0x57, 0xff, 0xff, 0xff, 
 0xff, 0xff, 0x55, 0xfd };
