#define image_width  8
#define image_height 8
static unsigned char image_bits[] = {
 0x08, 0x0c, 0x0f, 0x2f, 0x17, 0x0b, 0x0c, 0x0a };
