#define zeus_width  8
#define zeus_height 8
static unsigned char zeus_bits[] = {
  0x20, 0x10, 0x18, 0x7c, 0x3e, 0x18, 0x08, 0x04 };

